<?xml version="1.0" encoding="utf-8"?>
<!-- Generator: Adobe Illustrator 16.0.0, SVG Export Plug-In . SVG Version: 6.00 Build 0)  -->
<!DOCTYPE svg PUBLIC "-//W3C//DTD SVG 1.1//EN" "http://www.w3.org/Graphics/SVG/1.1/DTD/svg11.dtd">
<svg version="1.1" id="Warstwa_1" xmlns="http://www.w3.org/2000/svg" xmlns:xlink="http://www.w3.org/1999/xlink" x="0px" y="0px"
	 width="554.05px" height="200px" viewBox="0 0 554.05 200" enable-background="new 0 0 554.05 200" xml:space="preserve">
<g>
	<path fill="#560175" d="M148.307,22.239c0,2.836-0.124,5.255-0.367,7.256c-0.245,2.004-0.611,3.617-1.1,4.838
		c-0.49,1.223-1.099,2.125-1.833,2.712c-0.732,0.586-1.539,0.879-2.418,0.879H95.093V190.82c0,0.979-0.318,1.858-0.952,2.64
		c-0.638,0.784-1.687,1.415-3.152,1.905c-1.466,0.489-3.445,0.88-5.937,1.173c-2.492,0.292-5.595,0.44-9.309,0.44
		c-3.715,0-6.816-0.148-9.308-0.44c-2.493-0.293-4.472-0.684-5.938-1.173c-1.466-0.49-2.517-1.121-3.151-1.905
		c-0.638-0.781-0.953-1.66-0.953-2.64V37.925H8.897c-0.978,0-1.81-0.293-2.492-0.879c-0.684-0.586-1.271-1.489-1.759-2.712
		c-0.491-1.221-0.857-2.834-1.1-4.838c-0.245-2.001-0.366-4.42-0.366-7.256c0-2.932,0.122-5.423,0.366-7.476
		c0.243-2.052,0.609-3.687,1.1-4.911c0.488-1.221,1.075-2.101,1.759-2.639c0.683-0.536,1.515-0.806,2.492-0.806H142.59
		c0.879,0,1.686,0.271,2.418,0.806c0.733,0.538,1.342,1.417,1.833,2.639c0.489,1.224,0.855,2.859,1.1,4.911
		C148.183,16.816,148.307,19.307,148.307,22.239z"/>
	<path fill="#560175" d="M391.796,190.82c0,0.979-0.271,1.858-0.805,2.64c-0.539,0.784-1.518,1.415-2.932,1.905
		c-1.419,0.489-3.3,0.88-5.645,1.173c-2.347,0.292-5.327,0.44-8.942,0.44c-3.519,0-6.45-0.148-8.796-0.44
		c-2.345-0.293-4.205-0.684-5.571-1.173c-1.368-0.49-2.345-1.121-2.931-1.905c-0.586-0.781-0.88-1.66-0.88-2.64V36.459h-0.294
		l-54.972,154.215c-0.39,1.27-1.025,2.323-1.905,3.151c-0.88,0.832-2.077,1.493-3.591,1.979c-1.518,0.486-3.446,0.808-5.792,0.951
		c-2.345,0.15-5.182,0.223-8.502,0.223c-3.324,0-6.157-0.124-8.502-0.366c-2.345-0.246-4.276-0.636-5.791-1.173
		c-1.517-0.536-2.712-1.195-3.591-1.979c-0.88-0.781-1.466-1.71-1.759-2.786L207.53,36.459h-0.293V190.82
		c0,0.979-0.271,1.858-0.806,2.64c-0.538,0.784-1.539,1.415-3.005,1.905c-1.466,0.489-3.349,0.88-5.644,1.173
		c-2.297,0.292-5.254,0.44-8.868,0.44c-3.519,0-6.451-0.148-8.796-0.44c-2.346-0.293-4.229-0.684-5.644-1.173
		c-1.418-0.49-2.396-1.121-2.932-1.905c-0.538-0.781-0.806-1.66-0.806-2.64V21.8c0-4.984,1.319-8.796,3.958-11.435
		c2.639-2.639,6.157-3.958,10.555-3.958h25.213c4.494,0,8.356,0.366,11.581,1.099c3.225,0.733,6.01,1.957,8.355,3.665
		c2.345,1.71,4.3,3.958,5.864,6.743c1.563,2.785,2.932,6.23,4.105,10.334l41.046,113.024h0.586l42.511-112.73
		c1.27-4.105,2.662-7.572,4.177-10.408c1.515-2.834,3.274-5.131,5.277-6.89s4.373-3.005,7.111-3.738
		c2.735-0.733,5.911-1.099,9.529-1.099h25.947c2.638,0,4.909,0.344,6.817,1.025c1.902,0.685,3.466,1.686,4.69,3.005
		c1.22,1.319,2.146,2.932,2.783,4.838c0.636,1.906,0.953,4.082,0.953,6.523V190.82z"/>
	<path fill="#560175" d="M545.572,139.221c0,9.968-1.858,18.714-5.57,26.239c-3.715,7.526-8.749,13.805-15.1,18.839
		c-6.353,5.033-13.779,8.818-22.282,11.36c-8.502,2.541-17.591,3.811-27.266,3.811c-6.55,0-12.633-0.539-18.252-1.612
		c-5.62-1.078-10.58-2.368-14.879-3.884c-4.3-1.515-7.893-3.104-10.772-4.766c-2.885-1.662-4.962-3.128-6.232-4.397
		c-1.271-1.271-2.177-3.102-2.713-5.496c-0.537-2.396-0.805-5.842-0.805-10.336c0-3.028,0.098-5.571,0.294-7.622
		c0.193-2.053,0.511-3.715,0.953-4.985c0.438-1.27,1.023-2.174,1.759-2.713c0.73-0.534,1.586-0.806,2.564-0.806
		c1.367,0,3.3,0.806,5.79,2.421c2.494,1.61,5.692,3.396,9.604,5.35c3.907,1.957,8.574,3.738,13.999,5.349
		c5.423,1.615,11.701,2.42,18.837,2.42c4.69,0,8.892-0.561,12.607-1.685c3.712-1.123,6.865-2.713,9.452-4.764
		c2.59-2.053,4.571-4.595,5.939-7.624c1.367-3.028,2.052-6.398,2.052-10.114c0-4.299-1.172-7.989-3.519-11.069
		c-2.346-3.076-5.4-5.812-9.163-8.21c-3.761-2.393-8.036-4.639-12.825-6.742c-4.79-2.101-9.725-4.323-14.806-6.669
		c-5.083-2.345-10.018-5.007-14.806-7.989c-4.791-2.981-9.066-6.546-12.825-10.702c-3.765-4.153-6.818-9.064-9.164-14.733
		c-2.346-5.666-3.519-12.46-3.519-20.376c0-9.089,1.686-17.078,5.06-23.968c3.369-6.89,7.916-12.607,13.631-17.151
		c5.72-4.544,12.462-7.938,20.229-10.188c7.773-2.248,16.005-3.372,24.702-3.372c4.495,0,8.99,0.344,13.486,1.026
		c4.496,0.685,8.697,1.613,12.607,2.786c3.909,1.172,7.377,2.492,10.408,3.957c3.029,1.466,5.031,2.69,6.01,3.665
		c0.977,0.978,1.636,1.81,1.979,2.492c0.343,0.685,0.636,1.59,0.879,2.712c0.244,1.124,0.416,2.542,0.515,4.251
		c0.097,1.71,0.146,3.836,0.146,6.376c0,2.836-0.074,5.229-0.218,7.183c-0.149,1.957-0.394,3.569-0.736,4.837
		c-0.343,1.271-0.83,2.199-1.465,2.786c-0.637,0.586-1.491,0.879-2.564,0.879c-1.076,0-2.786-0.682-5.131-2.052
		c-2.347-1.368-5.23-2.859-8.648-4.472c-3.422-1.613-7.381-3.078-11.875-4.397c-4.497-1.319-9.431-1.979-14.806-1.979
		c-4.204,0-7.869,0.513-10.994,1.539c-3.129,1.026-5.742,2.444-7.844,4.252c-2.103,1.81-3.662,3.982-4.691,6.523
		c-1.023,2.542-1.538,5.229-1.538,8.062c0,4.203,1.149,7.843,3.445,10.921c2.294,3.079,5.373,5.815,9.233,8.209
		c3.861,2.396,8.234,4.643,13.122,6.744c4.884,2.103,9.868,4.325,14.952,6.67c5.081,2.345,10.065,5.009,14.952,7.989
		c4.885,2.983,9.235,6.547,13.047,10.702s6.89,9.04,9.235,14.657C544.398,124.979,545.572,131.598,545.572,139.221z"/>
</g>
</svg>
