<?xml version="1.0" encoding="utf-8"?>
<!-- Generator: Adobe Illustrator 16.0.0, SVG Export Plug-In . SVG Version: 6.00 Build 0)  -->
<!DOCTYPE svg PUBLIC "-//W3C//DTD SVG 1.1//EN" "http://www.w3.org/Graphics/SVG/1.1/DTD/svg11.dtd">
<svg version="1.1" id="Warstwa_1" xmlns="http://www.w3.org/2000/svg" xmlns:xlink="http://www.w3.org/1999/xlink" x="0px" y="0px"
	 width="173.2px" height="200px" viewBox="0 0 173.2 200" enable-background="new 0 0 173.2 200" xml:space="preserve">
<path fill="#46017C" d="M108.19,196.746H65.01c-3.381,0-5.824-0.751-7.33-2.267c-1.513-1.504-2.268-3.953-2.268-7.328V56.285h-39.18
	c-3.378,0-5.825-0.755-7.33-2.266c-1.509-1.509-2.265-3.955-2.265-7.33V14.441c0-3.373,0.755-5.819,2.265-7.332
	c1.505-1.506,3.951-2.265,7.33-2.265h140.729c3.371,0,5.82,0.759,7.327,2.265c1.512,1.513,2.271,3.959,2.271,7.332v32.252
	c0,3.375-0.76,5.82-2.271,7.33c-1.507,1.511-3.956,2.265-7.327,2.265h-39.18v130.869c0,3.373-0.759,5.823-2.267,7.325
	C114.005,195.995,111.561,196.746,108.19,196.746z M85.265,172.762h2.671V31.498h54.64v-2.665H30.626v2.665h54.638V172.762z"/>
</svg>
